<svg width="34" height="34" viewBox="0 0 34 34" fill="none" xmlns="http://www.w3.org/2000/svg">
<path d="M17 9C12.5816 9 9 12.5816 9 17C9 21.4184 12.5816 25 17 25C21.4184 25 25 21.4184 25 17C25 12.5816 21.4184 9 17 9ZM17 10.1592C18.7428 10.1592 20.3336 10.8112 21.5416 11.884C20.654 13.0548 19.3056 13.8344 17.9544 14.362C17.1895 12.9689 16.3323 11.6286 15.3884 10.35C15.9163 10.2228 16.4574 10.1587 17.0004 10.1592H17ZM14.0896 10.8072C14.9816 12.1416 15.8456 13.3788 16.6348 14.7792C14.6388 15.2964 12.3832 15.6068 10.2996 15.612C10.7388 13.4808 12.1704 11.7112 14.0896 10.8076V10.8072ZM22.3004 12.6752C23.2889 13.8832 23.8327 15.3939 23.8408 16.9548C22.2584 16.6428 20.6848 16.5612 19.0824 16.7228C18.9024 16.2736 18.684 15.8468 18.4748 15.3868C19.856 14.8296 21.3328 13.876 22.3004 12.6748V12.6752ZM17.1904 15.8376C17.3616 16.2016 17.56 16.588 17.7464 16.9828C15.5184 17.9652 13.1484 19.278 11.9184 21.5796C10.7376 20.2729 10.1083 18.5599 10.1624 16.7996C12.5484 16.7884 14.8904 16.49 17.1904 15.8376V15.8376ZM20.8056 17.7028C21.8011 17.703 22.7925 17.8307 23.7556 18.0828C23.6071 19.0093 23.2696 19.8953 22.764 20.6858C22.2584 21.4763 21.5956 22.1543 20.8168 22.6776C20.4496 21.0076 20.0996 19.4096 19.4808 17.7984C19.9194 17.7345 20.362 17.7024 20.8052 17.7024L20.8056 17.7028ZM23.7912 17.8268C23.7864 17.866 23.782 17.9044 23.7764 17.9428C23.782 17.904 23.7868 17.8656 23.7912 17.8268ZM18.2152 18.1108C18.8456 19.74 19.3404 21.544 19.6724 23.2996C18.8273 23.6582 17.9184 23.8424 17.0004 23.8412C15.4795 23.8434 14.0017 23.3364 12.8024 22.4012C14.0412 20.3916 15.96 18.8708 18.2148 18.1112L18.2152 18.1108Z" fill="white"/>
<circle cx="17" cy="17" r="16.5" stroke="white"/>
</svg>
