<svg width="714" height="101" viewBox="0 0 714 101" fill="none" xmlns="http://www.w3.org/2000/svg">
<path d="M0.48 0.343991H25.968V39.224H65.424V0.343991H90.912V101H65.424V60.392H25.968V101H0.48V0.343991ZM243.785 21.8H215.417V0.343991H297.785V21.8H269.273V101H243.785V21.8ZM422.293 0.343991H466.645C478.357 0.343991 487.717 3.41599 494.725 9.55999C501.733 15.704 505.237 24.296 505.237 35.336C505.237 46.664 501.733 55.448 494.725 61.688C487.813 67.832 478.453 70.904 466.645 70.904H447.781V101H422.293V0.343991ZM462.613 49.448C467.701 49.448 471.685 48.392 474.565 46.28C477.541 44.168 479.029 40.52 479.029 35.336C479.029 30.152 477.589 26.6 474.709 24.68C471.829 22.76 467.797 21.8 462.613 21.8H447.781V49.448H462.613ZM630.457 0.343991H675.673C687.481 0.343991 696.697 3.31999 703.321 9.272C710.041 15.224 713.401 23.768 713.401 34.904C713.401 42.392 711.769 48.776 708.505 54.056C705.241 59.336 700.633 63.272 694.681 65.864L712.537 101H686.329L670.345 69.464H655.945V101H630.457V0.343991ZM671.209 48.008C676.297 48.008 680.233 47.048 683.017 45.128C685.801 43.112 687.193 39.704 687.193 34.904C687.193 29.912 685.801 26.504 683.017 24.68C680.329 22.76 676.393 21.8 671.209 21.8H655.945V48.008H671.209Z" fill="#5C5C5C"/>
</svg>
