<svg width="33" height="33" viewBox="0 0 33 33" fill="none" xmlns="http://www.w3.org/2000/svg">
<path d="M18.7936 11.7276H22.5366V12.7884H18.7936V11.7276ZM15.0432 15.9247C15.8705 15.4622 16.3039 14.7587 16.3039 13.6716C16.3039 11.5216 14.9343 11 13.3527 11H9V21.7918H13.4747C15.152 21.7918 16.7261 20.8494 16.7261 18.6577C16.7261 17.3032 16.1782 16.3017 15.0432 15.9247ZM11.03 12.841H12.9343C13.6679 12.841 14.3265 13.0799 14.3265 14.0749C14.3265 14.991 13.8143 15.3592 13.0882 15.3592H11.03V12.841ZM13.197 19.9596H11.0281V16.9876H13.2401C14.1332 16.9876 14.6979 17.4238 14.6979 18.5284C14.6979 19.6155 14.0244 19.9596 13.197 19.9596ZM24 17.998C24 15.6858 22.8424 13.7593 20.7486 13.7593C18.7129 13.7593 17.3283 15.5499 17.3283 17.8972C17.3283 20.3299 18.6398 22 20.7486 22C22.3452 22 23.379 21.1606 23.8762 19.37H22.257C22.0807 20.0385 21.364 20.3891 20.8068 20.3891C19.7298 20.3891 19.167 19.6527 19.167 18.4013H23.9869C23.9925 18.272 24 18.1361 24 17.998ZM19.167 17.0468C19.2251 16.0189 19.8124 15.3768 20.6904 15.3768C21.6135 15.3768 22.075 16.0102 22.1557 17.0468H19.167Z" fill="white"/>
<circle cx="16.5" cy="16.5" r="16" stroke="#2E2E2E"/>
</svg>
