<svg width="34" height="34" viewBox="0 0 34 34" fill="none" xmlns="http://www.w3.org/2000/svg">
<path d="M19.4465 11.7276H23.439V12.7884H19.4465V11.7276ZM15.446 15.9247C16.3286 15.4622 16.7909 14.7587 16.7909 13.6716C16.7909 11.5216 15.33 11 13.6429 11H9V21.7918H13.773C15.5621 21.7918 17.2412 20.8494 17.2412 18.6577C17.2412 17.3032 16.6568 16.3017 15.446 15.9247V15.9247ZM11.1654 12.841H13.1966C13.9791 12.841 14.6816 13.0799 14.6816 14.0749C14.6816 14.991 14.1352 15.3592 13.3607 15.3592H11.1654V12.841ZM13.4768 19.9596H11.1634V16.9876H13.5228C14.4754 16.9876 15.0778 17.4238 15.0778 18.5284C15.0778 19.6155 14.3593 19.9596 13.4768 19.9596V19.9596ZM25 17.998C25 15.6858 23.7652 13.7593 21.5318 13.7593C19.3605 13.7593 17.8836 15.5499 17.8836 17.8972C17.8836 20.3299 19.2824 22 21.5318 22C23.2349 22 24.3376 21.1606 24.8679 19.37H23.1408C22.9527 20.0385 22.1882 20.3891 21.5939 20.3891C20.4452 20.3891 19.8448 19.6527 19.8448 18.4013H24.986C24.992 18.272 25 18.1361 25 17.998V17.998ZM19.8448 17.0468C19.9068 16.0189 20.5332 15.3768 21.4698 15.3768C22.4544 15.3768 22.9467 16.0102 23.0328 17.0468H19.8448Z" fill="white"/>
<circle cx="17" cy="17" r="16.5" stroke="white"/>
</svg>
