<svg width="357" height="51" viewBox="0 0 357 51" fill="none" xmlns="http://www.w3.org/2000/svg">
<path d="M0.24 0.671996H12.984V20.112H32.712V0.671996H45.456V51H32.712V30.696H12.984V51H0.24V0.671996ZM121.892 11.4H107.708V0.671996H148.892V11.4H134.636V51H121.892V11.4ZM211.147 0.671996H233.323C239.179 0.671996 243.859 2.208 247.363 5.28C250.867 8.352 252.619 12.648 252.619 18.168C252.619 23.832 250.867 28.224 247.363 31.344C243.907 34.416 239.227 35.952 233.323 35.952H223.891V51H211.147V0.671996ZM231.307 25.224C233.851 25.224 235.843 24.696 237.283 23.64C238.771 22.584 239.515 20.76 239.515 18.168C239.515 15.576 238.795 13.8 237.355 12.84C235.915 11.88 233.899 11.4 231.307 11.4H223.891V25.224H231.307ZM315.229 0.671996H337.837C343.741 0.671996 348.349 2.16 351.661 5.136C355.021 8.112 356.701 12.384 356.701 17.952C356.701 21.696 355.885 24.888 354.253 27.528C352.621 30.168 350.317 32.136 347.341 33.432L356.269 51H343.165L335.173 35.232H327.973V51H315.229V0.671996ZM335.605 24.504C338.149 24.504 340.117 24.024 341.509 23.064C342.901 22.056 343.597 20.352 343.597 17.952C343.597 15.456 342.901 13.752 341.509 12.84C340.165 11.88 338.197 11.4 335.605 11.4H327.973V24.504H335.605Z" fill="white"/>
</svg>
