<svg width="33" height="33" viewBox="0 0 33 33" fill="none" xmlns="http://www.w3.org/2000/svg">
<path d="M16.5 9C12.3578 9 9 12.3578 9 16.5C9 20.6423 12.3578 24 16.5 24C20.6423 24 24 20.6423 24 16.5C24 12.3578 20.6423 9 16.5 9ZM16.5 10.0868C18.1339 10.0868 19.6252 10.698 20.7577 11.7038C19.9256 12.8014 18.6615 13.5322 17.3947 14.0269C16.6777 12.7209 15.874 11.4643 14.9891 10.2656C15.484 10.1463 15.9913 10.0863 16.5004 10.0868H16.5ZM13.7715 10.6943C14.6077 11.9453 15.4177 13.1051 16.1576 14.418C14.2864 14.9029 12.1718 15.1939 10.2184 15.1988C10.6301 13.2008 11.9722 11.5417 13.7715 10.6946V10.6943ZM21.4691 12.4455C22.3958 13.578 22.9056 14.9943 22.9132 16.4576C21.4298 16.1651 19.9545 16.0886 18.4522 16.2401C18.2835 15.819 18.0787 15.4189 17.8826 14.9876C19.1775 14.4652 20.562 13.5712 21.4691 12.4451V12.4455ZM16.6785 15.4102C16.839 15.7515 17.025 16.1138 17.1997 16.4839C15.111 17.4049 12.8891 18.6356 11.736 20.7934C10.629 19.5684 10.0391 17.9624 10.0897 16.3121C12.3266 16.3016 14.5223 16.0219 16.6785 15.4102ZM20.0677 17.1589C21.0011 17.1591 21.9305 17.2788 22.8334 17.5151C22.6942 18.3837 22.3777 19.2144 21.9037 19.9554C21.4298 20.6965 20.8084 21.3321 20.0782 21.8228C19.734 20.2571 19.4059 18.759 18.8258 17.2485C19.2369 17.1886 19.6519 17.1585 20.0674 17.1585L20.0677 17.1589ZM22.8668 17.2751C22.8623 17.3119 22.8581 17.3479 22.8529 17.3839C22.8581 17.3475 22.8626 17.3115 22.8668 17.2751ZM17.6392 17.5414C18.2303 19.0688 18.6941 20.76 19.0054 22.4059C18.2131 22.742 17.361 22.9148 16.5004 22.9136C15.0746 22.9157 13.6891 22.4404 12.5647 21.5636C13.7261 19.6796 15.525 18.2539 17.6389 17.5417L17.6392 17.5414Z" fill="white"/>
<circle cx="16.5" cy="16.5" r="16" stroke="#2E2E2E"/>
</svg>
