<svg width="548" height="170" viewBox="0 0 548 170" fill="none" xmlns="http://www.w3.org/2000/svg">
<path d="M280.979 82.4832H339.541C354.556 82.4832 366.728 94.6553 366.728 109.67C366.728 120.71 357.779 129.659 346.74 129.659H280.979C267.952 129.659 257.391 119.098 257.391 106.071C257.391 93.0438 267.952 82.4832 280.979 82.4832Z" fill="white" stroke="white"/>
<path d="M366.958 22.45V107.948C366.958 120.07 357.131 129.898 345.008 129.898C332.886 129.898 323.058 120.07 323.058 107.948V22.45C323.058 10.3275 332.886 0.500244 345.008 0.500244C357.131 0.500244 366.958 10.3275 366.958 22.45Z" fill="white" stroke="white"/>
<path d="M425.5 82.4999H498.5C508.441 82.4999 516.5 90.5588 516.5 100.5C516.5 110.441 508.441 118.5 498.5 118.5H425.5C415.559 118.5 407.5 110.441 407.5 100.5C407.5 90.5588 415.559 82.4999 425.5 82.4999Z" stroke="white"/>
<path d="M507.114 151.873L476.705 106.953C472.957 101.417 473.69 93.0369 478.342 88.2356C489.234 76.9936 505.177 78.3879 513.951 91.35L522.329 103.725L535.258 122.823C541.519 132.073 540.294 146.073 532.523 154.095C524.751 162.117 513.375 161.122 507.114 151.873Z" stroke="white"/>
<path d="M516.742 22.45V99.892C516.742 110.34 508.272 118.809 497.825 118.809C484.027 118.809 472.843 107.625 472.843 93.8273V22.45C472.843 10.3275 482.67 0.500244 494.792 0.500244C506.915 0.500244 516.742 10.3275 516.742 22.45Z" stroke="white"/>
<rect x="168.603" y="0.500244" width="43.8995" height="164.88" rx="21.9497" stroke="white"/>
<rect x="79.5229" y="0.500244" width="43.8995" height="164.88" rx="21.9497" fill="white" stroke="white"/>
<rect x="0.5" y="0.501221" width="43.8995" height="164.88" rx="21.9497" fill="white" stroke="white"/>
<rect x="407.469" y="0.500244" width="43.8995" height="164.88" rx="21.9497" stroke="white"/>
<rect x="257.684" y="0.500244" width="43.8995" height="164.88" rx="21.9497" fill="white" stroke="white"/>
<path d="M279.812 0.500107L344.08 0.500107C356.588 0.500107 366.728 10.64 366.728 23.1482C366.728 43.2293 350.449 59.5083 330.368 59.5083H293.979C273.772 59.5083 257.391 43.1273 257.391 22.9204C257.391 10.538 267.429 0.500107 279.812 0.500107Z" fill="white" stroke="white"/>
<path d="M101.194 0.500107L495.152 0.500107C507.026 0.500107 516.652 10.126 516.652 22.0001V59.5083L117.16 59.5083C96.4565 59.5083 79.6731 42.7249 79.6731 22.0215C79.6731 10.1355 89.3085 0.500107 101.194 0.500107Z" stroke="white"/>
<rect x="0.5" y="110.383" width="54.4411" height="122.923" rx="27.2205" transform="rotate(-90 0.5 110.383)" fill="white" stroke="white"/>
</svg>
