<svg width="33" height="33" viewBox="0 0 33 33" fill="none" xmlns="http://www.w3.org/2000/svg">
<path d="M16.5 32.5C25.3366 32.5 32.5 25.3366 32.5 16.5C32.5 7.66344 25.3366 0.5 16.5 0.5C7.66344 0.5 0.5 7.66344 0.5 16.5C0.5 25.3366 7.66344 32.5 16.5 32.5Z" stroke="#2E2E2E"/>
<path fill-rule="evenodd" clip-rule="evenodd" d="M13.6656 9.66625C14.3987 9.6325 14.6325 9.625 16.5 9.625C18.3675 9.625 18.6012 9.63312 19.3337 9.66625C20.0662 9.69937 20.5662 9.81625 21.0037 9.98562C21.4619 10.1587 21.8775 10.4294 22.2212 10.7794C22.5712 11.1225 22.8412 11.5375 23.0137 11.9962C23.1837 12.4337 23.3 12.9337 23.3337 13.665C23.3675 14.3994 23.375 14.6331 23.375 16.5C23.375 18.3675 23.3669 18.6012 23.3337 19.3344C23.3006 20.0656 23.1837 20.5656 23.0137 21.0031C22.8412 21.4619 22.5708 21.8776 22.2212 22.2212C21.8775 22.5712 21.4619 22.8412 21.0037 23.0137C20.5662 23.1837 20.0662 23.3 19.335 23.3337C18.6012 23.3675 18.3675 23.375 16.5 23.375C14.6325 23.375 14.3987 23.3669 13.6656 23.3337C12.9344 23.3006 12.4344 23.1837 11.9969 23.0137C11.5381 22.8412 11.1224 22.5708 10.7787 22.2212C10.429 21.8779 10.1583 21.4624 9.98562 21.0037C9.81625 20.5662 9.7 20.0662 9.66625 19.335C9.6325 18.6006 9.625 18.3669 9.625 16.5C9.625 14.6325 9.63312 14.3987 9.66625 13.6662C9.69937 12.9337 9.81625 12.4337 9.98562 11.9962C10.1586 11.5376 10.4294 11.1221 10.7794 10.7787C11.1225 10.4291 11.5378 10.1584 11.9962 9.98562C12.4337 9.81625 12.9337 9.7 13.665 9.66625H13.6656ZM19.2781 10.9037C18.5531 10.8706 18.3356 10.8637 16.5 10.8637C14.6644 10.8637 14.4469 10.8706 13.7219 10.9037C13.0512 10.9344 12.6875 11.0462 12.445 11.1406C12.1244 11.2656 11.895 11.4137 11.6544 11.6544C11.4263 11.8763 11.2507 12.1464 11.1406 12.445C11.0462 12.6875 10.9344 13.0512 10.9037 13.7219C10.8706 14.4469 10.8637 14.6644 10.8637 16.5C10.8637 18.3356 10.8706 18.5531 10.9037 19.2781C10.9344 19.9487 11.0462 20.3125 11.1406 20.555C11.2506 20.8531 11.4262 21.1237 11.6544 21.3456C11.8762 21.5737 12.1469 21.7494 12.445 21.8594C12.6875 21.9537 13.0512 22.0656 13.7219 22.0962C14.4469 22.1294 14.6637 22.1362 16.5 22.1362C18.3362 22.1362 18.5531 22.1294 19.2781 22.0962C19.9487 22.0656 20.3125 21.9537 20.555 21.8594C20.8756 21.7344 21.105 21.5862 21.3456 21.3456C21.5737 21.1237 21.7494 20.8531 21.8594 20.555C21.9537 20.3125 22.0656 19.9487 22.0962 19.2781C22.1294 18.5531 22.1362 18.3356 22.1362 16.5C22.1362 14.6644 22.1294 14.4469 22.0962 13.7219C22.0656 13.0512 21.9537 12.6875 21.8594 12.445C21.7344 12.1244 21.5862 11.895 21.3456 11.6544C21.1237 11.4263 20.8536 11.2508 20.555 11.1406C20.3125 11.0462 19.9487 10.9344 19.2781 10.9037V10.9037ZM15.6219 18.6194C16.1123 18.8235 16.6584 18.8511 17.1668 18.6973C17.6753 18.5436 18.1146 18.2181 18.4098 17.7764C18.7049 17.3347 18.8375 16.8043 18.785 16.2757C18.7325 15.7471 18.4981 15.2531 18.1219 14.8781C17.882 14.6384 17.592 14.4549 17.2727 14.3407C16.9534 14.2266 16.6128 14.1846 16.2753 14.2179C15.9379 14.2512 15.612 14.3589 15.3211 14.5332C15.0303 14.7076 14.7817 14.9442 14.5933 15.2262C14.4049 15.5081 14.2814 15.8283 14.2316 16.1637C14.1818 16.4991 14.207 16.8414 14.3053 17.1659C14.4037 17.4905 14.5728 17.7891 14.8004 18.0405C15.0281 18.2918 15.3086 18.4895 15.6219 18.6194ZM14.0012 14.0012C14.3294 13.6731 14.7189 13.4128 15.1477 13.2352C15.5764 13.0576 16.0359 12.9662 16.5 12.9662C16.9641 12.9662 17.4236 13.0576 17.8523 13.2352C18.281 13.4128 18.6706 13.6731 18.9987 14.0012C19.3269 14.3294 19.5872 14.7189 19.7648 15.1477C19.9424 15.5764 20.0338 16.0359 20.0338 16.5C20.0338 16.9641 19.9424 17.4236 19.7648 17.8523C19.5872 18.281 19.3269 18.6706 18.9987 18.9987C18.336 19.6615 17.4372 20.0338 16.5 20.0338C15.5628 20.0338 14.664 19.6615 14.0012 18.9987C13.3385 18.336 12.9662 17.4372 12.9662 16.5C12.9662 15.5628 13.3385 14.664 14.0012 14.0012V14.0012ZM20.8175 13.4925C20.8988 13.4158 20.9639 13.3236 21.0089 13.2212C21.054 13.1189 21.078 13.0086 21.0796 12.8968C21.0813 12.7851 21.0605 12.6741 21.0184 12.5705C20.9764 12.4669 20.914 12.3728 20.835 12.2938C20.7559 12.2147 20.6618 12.1523 20.5582 12.1103C20.4547 12.0683 20.3437 12.0475 20.2319 12.0491C20.1201 12.0507 20.0098 12.0748 19.9075 12.1198C19.8052 12.1648 19.713 12.2299 19.6362 12.3112C19.4871 12.4694 19.4054 12.6795 19.4086 12.8968C19.4117 13.1142 19.4995 13.3218 19.6532 13.4755C19.8069 13.6293 20.0145 13.717 20.2319 13.7202C20.4493 13.7234 20.6594 13.6417 20.8175 13.4925V13.4925Z" fill="white"/>
</svg>
