<svg width="33" height="33" viewBox="0 0 33 33" fill="none" xmlns="http://www.w3.org/2000/svg">
<path d="M11.6826 12.371C12.6119 12.371 13.3652 11.6164 13.3652 10.6855C13.3652 9.75462 12.6119 9 11.6826 9C10.7533 9 10 9.75462 10 10.6855C10 11.6164 10.7533 12.371 11.6826 12.371Z" fill="white"/>
<path d="M14.954 13.6481V22.9992H17.8525V18.3748C17.8525 17.1546 18.0817 15.973 19.592 15.973C21.0816 15.973 21.1001 17.368 21.1001 18.4519V22.9999H24.0001V17.8718C24.0001 15.3528 23.4587 13.417 20.5195 13.417C19.1083 13.417 18.1624 14.1927 17.7756 14.9268H17.7364V13.6481H14.954ZM10.2307 13.6481H13.1338V22.9992H10.2307V13.6481Z" fill="white"/>
<circle cx="16.5" cy="16.5" r="16" stroke="#2E2E2E"/>
</svg>
