<svg width="34" height="34" viewBox="0 0 34 34" fill="none" xmlns="http://www.w3.org/2000/svg">
<path d="M11.6826 13.371C12.6119 13.371 13.3652 12.6164 13.3652 11.6855C13.3652 10.7546 12.6119 10 11.6826 10C10.7533 10 10 10.7546 10 11.6855C10 12.6164 10.7533 13.371 11.6826 13.371Z" fill="white"/>
<path d="M14.9539 14.6481V23.9992H17.8524V19.3748C17.8524 18.1546 18.0815 16.973 19.5919 16.973C21.0815 16.973 21.1 18.368 21.1 19.4519V23.9999H23.9999V18.8718C23.9999 16.3528 23.4585 14.417 20.5193 14.417C19.1082 14.417 18.1623 15.1927 17.7755 15.9268H17.7363V14.6481H14.9539V14.6481ZM10.2306 14.6481H13.1337V23.9992H10.2306V14.6481Z" fill="white"/>
<circle cx="17" cy="17" r="16.5" stroke="white"/>
</svg>
