<svg width="119" height="17" viewBox="0 0 119 17" fill="none" xmlns="http://www.w3.org/2000/svg">
<path d="M0.08 0.223999H4.328V6.704H10.904V0.223999H15.152V17H10.904V10.232H4.328V17H0.08V0.223999ZM40.6308 3.8H35.9028V0.223999H49.6308V3.8H44.8788V17H40.6308V3.8ZM70.3822 0.223999H77.7742C79.7262 0.223999 81.2862 0.735999 82.4542 1.76C83.6222 2.784 84.2062 4.216 84.2062 6.056C84.2062 7.944 83.6222 9.408 82.4542 10.448C81.3022 11.472 79.7422 11.984 77.7742 11.984H74.6302V17H70.3822V0.223999ZM77.1022 8.408C77.9502 8.408 78.6142 8.232 79.0942 7.88C79.5902 7.528 79.8382 6.92 79.8382 6.056C79.8382 5.192 79.5982 4.6 79.1182 4.28C78.6382 3.96 77.9662 3.8 77.1022 3.8H74.6302V8.408H77.1022ZM105.076 0.223999H112.612C114.58 0.223999 116.116 0.719999 117.22 1.712C118.34 2.704 118.9 4.128 118.9 5.984C118.9 7.232 118.628 8.296 118.084 9.176C117.54 10.056 116.772 10.712 115.78 11.144L118.756 17H114.388L111.724 11.744H109.324V17H105.076V0.223999ZM111.868 8.168C112.716 8.168 113.372 8.008 113.836 7.688C114.3 7.352 114.532 6.784 114.532 5.984C114.532 5.152 114.3 4.584 113.836 4.28C113.388 3.96 112.732 3.8 111.868 3.8H109.324V8.168H111.868Z" fill="white"/>
</svg>
